<svg width="149" height="45" viewBox="0 0 149 45" fill="none" xmlns="http://www.w3.org/2000/svg">
<path d="M45.6552 0.0331421C41.3048 0.0331421 37.0521 1.32322 33.4349 3.74018C29.8176 6.15713 26.9983 9.59241 25.3334 13.6117C23.6685 17.6309 23.2329 22.0536 24.0815 26.3204C24.9302 30.5873 27.0251 34.5066 30.1013 37.5829C33.1775 40.6592 37.0967 42.7542 41.3635 43.603C45.6303 44.4518 50.0531 44.0163 54.0724 42.3516C58.0917 40.6868 61.5271 37.8677 63.9441 34.2505C66.3612 30.6333 67.6514 26.3806 67.6515 22.0301C67.6516 19.1415 67.0827 16.2812 65.9774 13.6124C64.872 10.9436 63.2518 8.51859 61.2092 6.47597C59.1666 4.43335 56.7418 2.8131 54.0731 1.70764C51.4043 0.602177 48.5439 0.0331421 45.6552 0.0331421ZM45.6552 37.2639C42.6421 37.2639 39.6967 36.3704 37.1915 34.6964C34.6862 33.0224 32.7336 30.6431 31.5805 27.8594C30.4275 25.0757 30.1257 22.0125 30.7135 19.0573C31.3014 16.1021 32.7523 13.3877 34.8829 11.2571C37.0135 9.12656 39.728 7.67559 42.6832 7.08777C45.6384 6.49995 48.7015 6.80168 51.4852 7.95473C54.2689 9.10779 56.6482 11.0604 58.3222 13.5657C59.9962 16.071 60.8896 19.0164 60.8896 22.0294C60.8887 26.0692 59.2833 29.9432 56.4264 32.7995C53.5695 35.6557 49.695 37.2603 45.6552 37.2603V37.2639Z" fill="white"/>
<path d="M0 44.0255V0.0357666H6.77687V37.2665H27.0489V44.0291L0 44.0255Z" fill="white"/>
<path d="M148.254 22.0258C148.254 35.1077 139.515 44.0221 126.674 44.0221H110.089V0.0330811H126.674C139.515 0.0330811 148.254 8.88736 148.254 22.0258ZM141.492 22.0258C141.492 12.2165 135.308 6.80567 126.569 6.80567H116.865V37.2459H126.569C135.308 37.2466 141.492 31.7729 141.492 22.0265V22.0258Z" fill="white"/>
<path d="M89.0509 0.0287781H82.2732L64.2059 44.0228H70.982L75.8016 31.9023H95.3645L100.342 44.0228H107.118L89.0509 0.0287781ZM78.463 25.1261L85.6624 6.88715L92.5816 25.1261H78.463Z" fill="white"/>
<path opacity="0.2" d="M45.6552 0.0331421C46.5516 0.0331421 47.4112 0.389297 48.0451 1.02314C48.6789 1.65699 49.035 2.51663 49.035 3.41303C49.035 4.30942 48.6789 5.16915 48.0451 5.80299C47.4112 6.43684 46.5516 6.79291 45.6552 6.79291C49.6956 6.79291 53.5705 8.39794 56.4275 11.2549C59.2845 14.1119 60.8896 17.9869 60.8896 22.0273C60.8883 22.6982 60.8432 23.3682 60.7545 24.0332H67.5571C67.6164 23.3719 67.6522 22.7043 67.6522 22.0273C67.6514 16.1939 65.3336 10.5995 61.2084 6.47492C57.0833 2.3503 51.4887 0.033142 45.6552 0.0331421Z" fill="url(#paint0_linear_1_2)"/>
<defs>
<linearGradient id="paint0_linear_1_2" x1="56.6537" y1="24.0332" x2="56.6537" y2="0.0331421" gradientUnits="userSpaceOnUse">
<stop stop-color="white" stop-opacity="0"/>
<stop offset="0.185" stop-opacity="0.49"/>
<stop offset="0.598"/>
<stop offset="1"/>
</linearGradient>
</defs>
</svg>
